<?xml version="1.0" standalone="no"?>
<!DOCTYPE svg PUBLIC "-//W3C//DTD SVG 20010904//EN"
 "http://www.w3.org/TR/2001/REC-SVG-20010904/DTD/svg10.dtd">
<svg version="1.0" xmlns="http://www.w3.org/2000/svg"
 width="720.000000pt" height="1280.000000pt" viewBox="0 0 720.000000 1280.000000"
 preserveAspectRatio="xMidYMid meet">

<g transform="translate(0.000000,1280.000000) scale(0.100000,-0.100000)"
fill="#000000" stroke="none">
<path d="M2373 9135 c-174 -48 -316 -182 -418 -390 -29 -60 -61 -139 -70 -175
-23 -91 -35 -287 -24 -388 l9 -82 -37 -32 c-104 -88 -184 -193 -239 -314 -49
-106 -67 -191 -67 -319 0 -192 48 -323 177 -483 88 -110 94 -133 78 -281 -11
-93 -46 -221 -61 -221 -4 0 -18 12 -32 26 -32 35 -110 73 -163 80 -110 16
-226 -61 -226 -149 0 -47 8 -61 70 -126 24 -25 51 -64 62 -88 23 -52 20 -73
-37 -252 -77 -246 -79 -373 -8 -514 74 -147 277 -271 510 -312 73 -13 274 -15
1352 -15 711 0 1349 4 1456 10 296 16 713 49 788 64 65 12 98 29 85 42 -20 20
-70 24 -646 50 -91 5 -145 11 -146 18 -29 122 -40 154 -66 191 -43 63 -120 98
-229 105 l-83 5 -24 65 c-62 169 -150 517 -134 534 16 16 349 -41 374 -65 6
-5 17 -33 26 -63 24 -75 83 -179 122 -212 103 -86 279 -96 365 -21 56 49 75
103 75 212 1 118 -13 178 -69 294 -56 117 -150 217 -258 273 -68 36 -299 118
-331 118 -10 0 -14 6 -9 18 15 51 36 187 42 280 5 83 9 105 23 112 10 5 27 30
39 55 41 86 20 213 -43 263 -26 20 -27 24 -24 98 l3 78 69 13 c173 31 377 134
499 252 151 144 215 301 247 605 18 170 -6 248 -85 286 -53 25 -69 25 -272 -5
-92 -14 -202 -25 -243 -25 l-76 0 -54 56 c-176 179 -457 253 -717 188 -146
-36 -273 -110 -473 -277 -296 -246 -374 -327 -433 -447 -29 -59 -32 -73 -32
-160 1 -84 4 -102 29 -153 57 -118 180 -210 319 -239 64 -13 66 -18 41 -91
-17 -50 -10 -47 -144 -68 -76 -11 -490 -8 -540 4 -14 4 -38 9 -55 13 -61 11
-222 68 -285 99 -134 67 -259 184 -315 296 l-25 49 72 36 c332 166 599 387
690 571 42 84 43 90 43 182 0 85 -3 102 -27 146 -34 65 -104 130 -176 163 -70
32 -189 40 -269 17z m227 -149 c50 -25 85 -69 101 -129 28 -104 -48 -243 -209
-380 -123 -106 -472 -320 -491 -302 -13 13 -5 279 11 340 59 232 215 430 379
480 30 9 59 18 64 20 23 8 103 -8 145 -29z m1713 -112 c99 -25 171 -68 265
-158 103 -97 118 -102 277 -86 55 5 107 10 116 10 12 0 18 -12 21 -51 10 -101
112 -189 219 -189 47 0 49 -1 49 -28 0 -43 -36 -174 -60 -222 -51 -100 -144
-167 -266 -191 -125 -25 -252 31 -320 141 -34 56 -40 60 -73 60 -21 0 -42 -5
-49 -12 -22 -22 -13 -72 23 -125 65 -96 182 -169 291 -180 30 -3 51 -9 47 -13
-27 -25 -250 -82 -371 -95 -49 -5 -66 -12 -77 -29 -19 -29 -8 -64 26 -82 28
-14 29 -17 29 -94 l0 -80 -85 0 c-209 0 -541 78 -777 183 -52 23 -58 29 -58
55 0 26 7 33 63 60 117 58 190 153 228 299 30 113 30 328 0 475 -19 95 -46
192 -65 239 -13 30 179 112 309 132 49 8 172 -2 238 -19z m-1055 -524 c-7 -10
-14 -17 -17 -15 -4 4 18 35 25 35 2 0 -1 -9 -8 -20z m-1294 -479 c129 -211
382 -372 686 -435 149 -31 274 -37 458 -24 94 7 172 11 172 8 0 -4 -127 -89
-231 -154 -29 -18 -38 -18 -148 -7 -92 10 -143 10 -234 1 l-116 -12 -107 71
c-124 84 -206 127 -265 140 -77 17 -101 -7 -144 -142 l-22 -68 -31 35 c-99
113 -143 292 -112 457 9 50 51 189 56 189 1 0 19 -26 38 -59z m-216 -138 c-6
-32 -7 -96 -4 -143 15 -201 89 -354 221 -458 l42 -32 6 -96 c6 -85 4 -100 -15
-137 -49 -97 -70 -179 -75 -297 -5 -100 -2 -123 16 -178 25 -74 60 -133 107
-182 l33 -35 -83 -87 c-71 -74 -93 -105 -139 -200 -54 -109 -87 -219 -87 -290
-1 -31 -1 -32 -15 -14 -28 36 -18 112 35 269 59 176 75 274 60 374 -5 39 -14
82 -19 95 -7 19 -3 44 19 104 62 176 76 391 31 485 -11 24 -48 76 -82 114 -65
75 -118 176 -140 265 -17 67 -16 239 0 300 15 54 81 200 91 200 4 0 3 -26 -2
-57z m492 -417 c101 -51 200 -127 235 -180 14 -21 25 -26 56 -26 36 0 38 -2
44 -37 26 -158 90 -178 102 -34 5 57 3 75 -8 82 -10 7 -3 9 21 7 l35 -3 17
-85 c25 -131 36 -160 58 -160 11 0 25 10 31 22 13 24 41 207 33 220 -3 4 5 8
18 8 21 0 23 -4 20 -47 -4 -58 18 -137 39 -141 17 -3 62 79 74 136 5 26 11 32
32 32 18 0 38 14 65 45 49 56 258 195 293 195 13 0 35 -71 44 -146 7 -54 7
-117 -1 -199 l-11 -120 27 -54 c29 -57 66 -187 66 -232 0 -31 8 -28 -140 -52
-74 -12 -75 -13 -75 -42 0 -29 2 -30 45 -29 25 0 73 4 108 8 51 7 62 6 58 -5
-2 -8 -7 -27 -11 -43 l-6 -29 -74 5 c-79 5 -105 -3 -105 -32 0 -25 13 -32 79
-39 l56 -6 -44 -42 c-24 -24 -51 -43 -60 -43 -53 0 -99 -25 -158 -85 -46 -48
-73 -67 -105 -75 -24 -6 -56 -15 -73 -20 -122 -36 -347 -37 -487 -1 -165 43
-275 101 -377 201 l-66 65 64 7 c70 8 85 16 79 44 -3 16 -16 20 -93 24 l-89 5
-10 33 c-5 18 -6 35 -3 38 3 3 46 0 96 -7 83 -12 93 -11 109 4 31 32 5 50 -99
67 -52 9 -99 19 -105 23 -24 14 17 186 64 267 14 25 25 54 24 65 -14 121 -18
221 -11 291 8 78 30 154 44 154 4 0 37 -15 75 -34z m1596 -75 c179 -50 306
-71 478 -78 l159 -6 -6 -136 c-8 -162 -43 -315 -105 -457 -38 -88 -130 -243
-144 -244 -4 0 -10 21 -13 48 -11 78 -35 175 -46 189 -13 15 -57 17 -78 4 -43
-27 56 -532 176 -891 35 -107 70 -198 76 -202 7 -4 62 -8 123 -8 126 0 148
-10 184 -81 29 -57 26 -159 -5 -159 -8 0 -16 20 -20 53 -9 65 -20 87 -45 87
-27 0 -39 -27 -29 -64 17 -60 12 -76 -24 -76 -31 0 -32 2 -47 63 -12 50 -19
63 -37 65 -30 4 -45 -26 -33 -69 18 -60 20 -59 -105 -59 l-116 0 30 43 c50 73
64 133 59 249 -6 125 -27 187 -104 300 -44 64 -52 83 -44 98 5 10 10 48 10 84
0 116 -60 201 -149 213 -55 8 -125 -27 -153 -76 l-22 -38 -125 5 c-99 3 -128
7 -136 19 -5 9 -21 29 -33 44 l-24 29 46 51 c25 28 60 81 78 117 32 65 33 70
32 187 -1 102 -5 133 -29 205 -15 47 -35 101 -44 120 -15 29 -16 50 -10 120 6
79 -3 259 -17 322 l-6 28 93 -34 c52 -18 144 -48 205 -65z m814 -673 c260 -82
376 -191 430 -404 32 -126 21 -227 -28 -253 -26 -14 -32 -6 -32 44 0 23 -5 56
-11 74 -9 27 -16 32 -38 29 -26 -3 -26 -3 -22 -82 l3 -79 -33 7 c-72 14 -116
68 -154 188 -14 43 -32 89 -41 103 -21 32 -76 52 -238 84 l-136 27 36 53 c32
47 77 138 113 224 9 23 15 27 34 21 12 -3 65 -20 117 -36z m-3083 -149 c32
-15 58 -40 93 -90 88 -127 92 -221 15 -444 -43 -124 -49 -150 -49 -225 0 -68
4 -93 21 -126 25 -47 82 -101 117 -110 17 -4 29 -19 41 -52 10 -26 28 -66 42
-90 l24 -43 -28 7 c-45 11 -142 51 -192 81 -76 44 -136 108 -166 176 -48 104
-38 211 40 463 58 185 46 265 -60 384 -25 28 -45 55 -45 61 0 13 38 28 74 28
16 1 49 -9 73 -20z m718 -385 c124 -65 334 -114 485 -114 92 0 190 14 293 40
44 12 83 22 89 23 6 1 16 -14 23 -33 12 -34 11 -36 -32 -84 -56 -63 -119 -193
-139 -287 -26 -120 -6 -236 53 -316 12 -17 23 -34 23 -37 0 -3 -34 -6 -75 -6
-72 0 -75 1 -75 24 0 43 -22 91 -61 131 -22 23 -39 48 -39 56 0 8 22 37 49 63
56 55 65 76 44 105 -20 29 -30 27 -79 -19 -24 -22 -52 -40 -63 -40 -17 0 -20
6 -18 41 2 60 -39 80 -69 34 -14 -21 -16 -43 -12 -128 3 -56 9 -110 13 -120 4
-10 26 -27 49 -39 57 -28 86 -57 86 -85 l0 -24 -136 3 -137 3 -14 47 c-8 30
-31 66 -64 102 l-50 55 10 56 c19 101 -12 196 -90 273 -46 47 -81 61 -104 42
-26 -22 -16 -52 34 -105 52 -55 71 -101 71 -172 0 -52 -29 -87 -85 -105 -32
-10 -41 -18 -43 -39 -5 -43 20 -58 80 -52 44 4 59 1 87 -19 19 -12 41 -38 48
-55 l13 -33 -187 0 c-212 0 -249 9 -296 72 -58 76 -72 123 -72 253 0 99 4 134
24 198 13 42 27 77 31 77 4 0 13 -7 20 -15 20 -24 118 -55 175 -55 68 0 72 17
14 57 -69 47 -110 86 -120 110 -5 14 -14 21 -20 17 -16 -10 4 26 31 54 l22 23
41 -47 c25 -28 64 -58 99 -74 84 -40 130 -22 72 29 -30 27 -91 160 -68 150 5
-2 36 -18 69 -35z m1445 -48 c41 -7 96 -21 123 -30 51 -17 127 -63 127 -77 0
-5 20 -29 44 -55 113 -117 166 -314 120 -446 -17 -52 -68 -108 -123 -135 -32
-16 -71 -18 -369 -21 -204 -2 -347 1 -370 7 -44 12 -116 70 -137 112 -28 54
-37 124 -26 199 21 132 70 229 161 316 27 26 46 52 43 58 -3 6 -3 8 1 4 5 -4
33 6 65 22 37 20 87 34 151 44 120 18 102 18 190 2z m275 -76 c-3 -5 -12 -10
-18 -10 -7 0 -6 4 3 10 19 12 23 12 15 0z"/>
<path d="M4290 8553 c-90 -46 -92 -196 -3 -238 31 -15 40 -15 70 -3 55 20 78
58 78 129 0 52 -3 62 -30 88 -40 39 -72 46 -115 24z"/>
<path d="M2450 6743 c-28 -25 -34 -38 -37 -84 -4 -48 -1 -58 25 -89 25 -29 36
-35 72 -35 67 0 110 63 96 140 -9 48 -44 85 -87 91 -30 5 -42 1 -69 -23z"/>
<path d="M3038 6755 c-39 -22 -63 -90 -49 -142 18 -65 65 -93 124 -74 41 14
67 57 67 111 0 96 -66 146 -142 105z"/>
<path d="M2713 6498 c-35 -17 -28 -50 17 -91 22 -19 40 -40 40 -45 0 -21 -42
-61 -70 -67 -44 -10 -83 2 -119 37 -32 31 -56 32 -68 3 -10 -28 20 -67 72 -91
76 -36 142 -29 193 19 15 14 25 18 30 10 15 -23 79 -53 115 -53 76 0 157 52
157 101 0 40 -32 44 -66 8 -49 -51 -135 -47 -171 7 -19 30 -11 54 27 79 38 25
47 52 26 73 -20 20 -150 27 -183 10z"/>
<path d="M3834 5778 c-22 -10 -44 -47 -44 -74 0 -30 31 -81 55 -92 30 -14 81
2 95 28 24 45 1 117 -45 138 -30 14 -33 14 -61 0z"/>
<path d="M3434 5765 c-34 -23 -49 -69 -34 -105 16 -39 32 -51 71 -52 64 -2
104 92 63 150 -18 26 -68 30 -100 7z"/>
<path d="M3623 5574 c-19 -8 -16 -32 7 -51 26 -22 26 -69 1 -83 -31 -16 -48
-12 -84 20 -40 34 -52 37 -65 13 -14 -24 5 -60 45 -84 27 -17 43 -20 81 -15
61 8 89 9 134 0 21 -3 49 -4 61 0 34 8 77 55 77 83 0 38 -27 40 -64 4 -34 -33
-55 -38 -87 -21 -26 14 -25 61 2 78 13 8 19 21 17 35 -3 19 -10 22 -58 24 -30
1 -61 -1 -67 -3z"/>
<path d="M5574 4791 c-60 -35 -84 -77 -84 -145 0 -57 33 -97 105 -124 56 -22
79 -47 55 -62 -24 -15 -62 -11 -97 10 l-32 19 -53 -48 c-63 -58 -59 -69 35
-100 167 -57 327 17 327 151 0 65 -43 106 -153 148 -18 6 -27 16 -25 26 5 26
40 33 83 18 l40 -13 42 41 c24 23 43 47 43 54 0 23 -74 48 -155 51 -74 4 -84
2 -131 -26z"/>
<path d="M1286 4783 c-13 -61 -76 -427 -76 -439 0 -11 18 -14 74 -14 85 0 78
-7 97 103 l11 68 72 -2 71 -2 12 59 c6 32 9 62 5 66 -4 4 -37 8 -73 10 -64 3
-66 4 -58 26 8 20 15 22 82 22 l74 0 7 43 c4 23 9 52 13 65 l5 22 -155 0 -155
0 -6 -27z"/>
<path d="M1666 4783 c-18 -88 -76 -417 -76 -434 0 -19 6 -19 157 -17 l157 3
13 60 c7 33 12 63 13 68 0 4 -36 7 -80 7 -44 0 -80 1 -80 3 0 1 14 77 30 167
17 90 30 166 30 167 0 2 -36 3 -79 3 -79 0 -79 0 -85 -27z"/>
<path d="M2006 4798 c-12 -38 -48 -282 -48 -321 0 -94 56 -143 175 -154 107
-9 193 28 234 103 14 25 32 94 48 185 13 79 27 156 31 172 l6 27 -80 0 -79 0
-22 -127 c-36 -209 -43 -223 -103 -223 -54 0 -59 36 -28 205 29 157 33 145
-55 145 -52 0 -77 -4 -79 -12z"/>
<path d="M2496 4593 c-21 -120 -40 -228 -43 -241 -5 -23 -4 -23 73 -20 l79 3
15 80 15 80 72 3 72 3 10 50 c18 81 19 79 -59 79 -69 0 -76 3 -64 34 5 13 22
16 79 16 41 0 76 3 78 8 3 4 8 33 11 65 l7 57 -153 0 -154 0 -38 -217z"/>
<path d="M2876 4593 c-21 -120 -40 -228 -43 -241 -5 -23 -4 -23 73 -20 l79 3
15 80 16 80 69 1 70 1 12 44 c23 88 22 89 -58 89 -67 0 -70 1 -67 23 3 20 9
22 80 25 85 3 82 0 94 85 l6 47 -154 0 -154 0 -38 -217z"/>
<path d="M3414 4748 c3 -35 11 -130 17 -213 6 -82 12 -161 13 -175 3 -24 6
-25 83 -28 l80 -3 59 130 c32 71 60 128 62 126 2 -2 6 -59 10 -127 l7 -123 80
0 80 0 20 40 c12 22 50 101 85 175 35 74 76 162 92 194 15 33 28 61 28 63 0 2
-37 3 -82 3 l-83 0 -50 -124 c-48 -119 -67 -146 -63 -88 1 15 1 69 0 120 l-2
92 -82 0 -83 0 -50 -127 -50 -128 -3 128 -3 127 -85 0 -86 0 6 -62z"/>
<path d="M4286 4788 c-8 -13 -43 -70 -78 -128 -36 -58 -94 -153 -130 -212 -37
-58 -64 -109 -61 -112 4 -3 42 -6 85 -6 l79 0 20 35 c24 40 36 45 105 44 64
-2 71 -6 76 -44 l3 -30 83 -3 c45 -2 82 1 82 5 0 4 -18 109 -40 233 -22 123
-40 228 -40 232 0 4 -38 8 -85 8 -77 0 -86 -2 -99 -22z m73 -230 c1 -26 -2
-28 -35 -28 l-35 0 28 51 c25 48 28 50 34 28 4 -13 7 -36 8 -51z"/>
<path d="M4670 4803 c0 -10 -50 -292 -66 -370 -22 -113 -36 -103 145 -103
l159 0 11 63 c6 35 11 67 11 70 0 4 -35 7 -79 7 l-78 0 28 163 c16 89 29 165
29 170 0 4 -36 7 -80 7 -44 0 -80 -3 -80 -7z"/>
<path d="M5036 4783 c-13 -62 -76 -427 -76 -440 0 -11 16 -13 78 -11 42 2 77
7 77 13 2 42 30 174 36 168 4 -5 27 -46 52 -93 l45 -85 91 -3 c71 -2 91 0 91
11 0 7 -4 17 -9 23 -5 5 -37 55 -70 111 l-60 103 104 112 105 113 -91 3 c-60
2 -96 -1 -106 -9 -8 -7 -42 -46 -75 -88 l-61 -76 7 45 c4 25 10 64 13 88 l6
42 -76 0 c-74 0 -76 0 -81 -27z"/>
</g>
</svg>
